<svg width="1600" height="695" viewBox="0 0 1600 695" fill="none" xmlns="http://www.w3.org/2000/svg">
<path d="M1577.36 460.076H1577.12L1493.31 411.755L1615.44 425.274L1615.6 423.849L1490.28 409.988L1428.81 370.784L1420.88 366.254L1580.38 382.964L1615.26 400.999L1615.91 399.746L1580.95 381.654L1519.56 345.726L1615.54 351.581L1615.63 350.157L1516.88 344.131L1471.46 311.58L1591.22 299.428L1615.13 317.663L1616 316.537L1593.53 299.442H1615.56V298.018H1591.66L1536.46 249.583L1607.1 246.634V245.209L1535 248.215L1476.98 193.142L1587.53 162.215L1606.56 188.384L1607.71 187.543L1588.88 161.673L1607.4 152.385L1606.76 151.117L1587.97 160.519L1536.97 94.6478L1607.36 63.0225L1606.77 61.7262L1535.91 93.5651L1481.9 61.2703L1571.79 23.32L1599.49 37.6511L1600.15 36.3833L1574.76 23.1918H1599.84V21.7673H1572.01L1529.85 0L1445.08 43.6058L1356.91 83.4934L1256.8 140.205L1150.79 173.953L1053.17 187.23L960.313 181.19L856.522 151.018L777.91 136.501L708.127 134.094L593.427 80.9577L497.896 93.6506L395.358 103.907L286.924 81.0005L195.295 39.9874H195.167L88.8126 35.1581L-14.9785 33.9473L-15.0924 35.3718L69.5014 47.1102L24.7265 68.9344L-19.7066 61.6549L-19.9345 63.0795L23.4305 70.1026L-15.5196 112.597L-14.4658 113.552L25.054 70.4302L123.804 101.357L77.6616 158.155L-26.8985 134.108L-27.226 135.533L76.7359 159.408L15.0281 234.183L-26.7276 217.445L-27.2545 218.77L13.7179 235.166L-29.0062 263.202L91.3334 281.251L36.8031 309.115L-26.9412 297.989L-27.1833 299.414L34.2967 310.155L-27.3257 334.458L-26.7988 335.783L-13.4119 330.498L137.29 339.957L110.232 347.82L63.2352 364.673L-27.1406 359.844L-27.2118 361.268L59.2903 365.884L-31 393.577L169.134 405.7L104.293 434.434L-27.1121 432.283V433.707L101.203 435.816L98.0838 437.24L2.97989 486.601L-27.0124 484.194L-27.1263 485.618L1.15699 487.883C-3.7278 491.445 -19.2509 502.3 -27.0694 502.3V503.724C-17.5846 503.724 1.41335 489.479 3.30745 488.054L252.318 508.411L162.213 581.961L-0.452246 567.502L-0.580458 568.926L160.917 583.286C146.191 599.384 109.99 637.818 104.378 638.744L104.606 640.169C111.884 638.958 159.307 587.189 162.711 583.457L472.646 601.478L430.933 680.185L432.186 680.84L474.213 601.563L766.36 614.797V695H767.784V614.797H1093.73L1132.18 680.84L1133.4 680.128L1095.44 614.854L1398.14 629.271L1417.28 640.055L1417.97 638.815L1398.72 627.989L1307.57 548.641L1572.61 577.702L1466.41 508.967L1608.27 525.663L1578.57 462.711L1615.15 485.575L1615.9 484.365L1577.45 460.332L1577.36 460.076ZM1044.08 543.712L1041.42 538.982L1305.07 548.384L1396.21 627.761L1094.52 613.387L1044.08 543.712ZM473.401 600.138L164.363 582.161L254.44 508.653L516.125 526.66L473.401 600.138ZM88.9978 36.5257L192.86 41.2552L156.246 66.4272L73.6456 46.3837L88.9978 36.5257ZM1381.97 104.563L1292.08 162.97L1258.43 140.903L1357.18 84.9892L1381.97 104.563ZM1480.24 61.9683L1534.15 94.2061L1426.05 134.094L1384.59 104.762L1480.24 61.9683ZM214.108 312.377L344.004 328.489L325.148 341.766L179.573 328.746L214.108 312.377ZM182.393 50.2585L277.212 88.0948L251.577 107.512L157.841 67.0683L182.393 50.2585ZM755.337 163.269V187.159L678.847 181.318L685.555 152.556L755.337 163.269ZM961.837 201.732L866.149 199.951L861.578 175.463L959.587 182.586L961.837 201.732ZM1290.6 163.653L1188.9 207.63L1163.27 192.771L1257.13 141.672L1290.6 163.653ZM1324.39 187.714L1209.04 230.551L1190.06 208.669L1292.02 164.579L1324.39 187.714ZM1425.89 135.732L1474.31 192.43L1365.91 228.186L1327.04 188.142L1425.89 135.732ZM571.552 425.06L593.698 385.429L779.633 386.625V407.524L772.612 427.468L571.552 425.06ZM297.805 243.058L409.186 277.561L405.669 282.832L384.221 307.862L261.546 281.65L297.805 243.058ZM251.976 109.15L354.514 167.557L326.373 207.444L226.156 151.402L251.976 109.15ZM478.841 142.57L455.328 194.324L356.579 166.944L378.881 122.327L478.841 142.57ZM962.307 203.114L980.507 222.459L873.854 241.434L866.363 201.333L962.307 203.114ZM1188.63 209.154L1207.37 230.779L1106.53 237.901L1090.86 221.063L1188.63 209.154ZM777.653 361.311L948.806 369.004L955.514 385.201H781.057V377.466L777.653 361.311ZM454.631 195.564L431.161 243.073L327.64 207.986L355.767 168.169L454.631 195.564ZM755.48 243.999L766.004 279.812L663.281 255.01L667.553 237.474L669.106 229.554L755.48 243.999ZM981.561 223.727L993.667 248.5L896.925 285.881V268.544L874.637 242.731L981.561 223.727ZM1106.03 239.397L1131 262.09H1008.76L996.216 249.483L1106.03 239.397ZM552.284 258.942L661.558 256.364L654.295 286.151L549.45 276.621L552.284 258.942ZM895.928 287.619L907.606 297.975H767.784V281.635L895.928 287.619ZM994.379 249.697L1007.11 262.518L909.642 297.875L897.537 287.163L994.379 249.697ZM774.207 345.37L768.14 329.928L923.699 335.826L940.105 350.071L774.207 345.37ZM655.32 287.69L766.403 299.328V316.423L646.206 315.255L655.32 287.69ZM767.827 299.4H909.044L915.795 316.395H767.784L767.827 299.4ZM768.24 317.819H916.35L922.93 334.373L767.813 328.489V317.805L768.24 317.819ZM924.411 334.316L917.76 317.577L1021.72 290.083L1045.55 299.314L1058.68 309.443L924.411 334.316ZM917.29 316.252L910.483 299.158L1008.15 263.7L1020.75 288.915L917.29 316.252ZM766.36 297.904L655.719 286.294L662.982 256.478L766.36 281.436V297.904ZM548.98 277.96L653.867 287.505L644.682 315.098L529.327 306.779L548.98 277.96ZM645.465 316.651L766.36 317.833V328.475L637.903 324.201L645.465 316.651ZM636.521 325.569L766.631 329.843L772.683 345.328H621.041L626.439 335.527L636.521 325.569ZM941.586 351.638L948.194 367.608L777.297 359.915L774.549 346.852L941.586 351.638ZM942.312 350.214L925.55 335.612L1060.13 310.682L1074.6 323.717L1086.72 328.888L942.312 350.214ZM1060.6 309.215L1046.36 298.189L1026.42 290.425L1159.21 299.442L1177.12 308.104L1186.37 313.93L1060.6 309.215ZM1022.15 288.701L1009.57 263.544H1132.38L1151.48 289.827L1157.76 297.932L1022.15 288.701ZM872.942 242.959L895.501 269.071V286.166L767.585 280.197L757.003 244.141L872.942 242.959ZM666.215 237.26L661.942 254.939L552.554 257.532L559.02 217.06L560.715 209.254L667.781 229.411L666.215 237.26ZM557.581 216.789L551.073 257.446L432.642 243.415L456.055 195.934L559.205 209.011L557.581 216.789ZM431.987 244.754L550.845 258.857L547.997 276.55L411.593 276.45L429.751 249.212L431.987 244.754ZM410.625 277.875L547.228 277.974L527.732 306.679L385.973 307.862L406.808 283.644L410.625 277.875ZM528.244 308.104L643.599 316.437L635.98 324.03H494.507L528.244 308.104ZM491.53 325.455H634.513L625.37 334.558L619.432 345.299L466.522 341.738L484.965 328.56L491.53 325.455ZM620.187 346.724H773.139L775.902 359.787H610.388L620.187 346.724ZM943.11 351.482L1089.07 329.928L1108.41 351.539L949.76 367.565L943.11 351.482ZM1089.34 328.475L1075.5 322.52L1062.31 310.639L1188.76 315.398L1209.77 323.788L1220.99 328.461L1089.34 328.475ZM1189.13 313.987L1177.74 306.864L1162.71 299.556L1283.52 304.542L1311.16 311.751L1332.82 318.646L1189.13 313.987ZM1159.71 297.989L1152.67 288.915L1134.16 263.487H1245.9L1281.95 303.032L1159.71 297.989ZM1133.05 262.062L1107.95 239.269L1208.58 232.146L1244.29 262.062H1133.05ZM1089.01 221.206L1104.68 238.03L995.019 248.101L982.985 223.627L1089.01 221.206ZM872.43 241.548L756.761 242.745V188.726L864.91 201.262L872.43 241.548ZM755.337 242.617L669.419 228.243L677.252 188.085L678.519 182.643L755.337 188.583V242.617ZM675.856 187.785L668.009 228.001L560.971 207.843L570.94 162.257L677.152 182.5L675.856 187.785ZM559.575 207.615L456.738 194.595L480.265 142.855L569.53 161.901L559.575 207.615ZM326.786 209.239L430.563 244.426L428.555 248.5L410.041 276.336L298.83 241.89L326.786 209.239ZM384.663 309.357L524.883 308.175L491.231 324.087L349.045 327.193L384.663 309.357ZM346.211 328.674L488.141 325.583L484.324 327.392L464.229 341.738H327.512L346.211 328.674ZM464.6 343.176L618.406 346.752L608.594 359.844H441.97L451.255 352.721L464.6 343.176ZM776.201 361.268L779.633 377.537V385.201L594.581 384.004L609.363 361.211L776.201 361.268ZM781.029 407.823V386.569H956.141L976.449 423.607L980.393 430.986L774.107 427.396L781.029 407.823ZM977.702 422.938L957.764 386.625L1138.47 393.748L1174.52 430.958H982.017L977.702 422.938ZM957.038 385.158L950.302 368.875L1109.49 352.792L1137.39 392.338L957.038 385.158ZM1110.18 351.368L1090.91 329.828H1224.26L1269.02 359.659L1110.18 351.368ZM1224.66 328.418L1210.26 322.421L1192.87 315.469L1337.72 320.156L1374.62 341.467L1224.66 328.418ZM1337.98 318.745L1311.56 310.312L1286.94 303.887L1417.48 280.368L1467.18 310.44L1337.98 318.745ZM1283.86 302.99L1247.48 263.102L1365.49 229.753L1416.11 279.199L1283.86 302.99ZM1364.33 228.556L1246.45 261.991L1210.26 231.633L1325.75 188.754L1364.33 228.556ZM1161.57 193.484L1186.64 207.957L1089.5 219.781L1075.51 207.886L1070.23 202.957L1161.57 193.484ZM1074.61 208.954L1087.43 219.852L982.174 222.231L964.244 203.128H1068.43L1074.61 208.954ZM864.625 199.837L756.761 187.344V163.368L860.068 175.292L864.625 199.837ZM677.423 181.062L571.268 160.819L584.313 118.082L586.52 109.834L684.173 152.129L677.423 181.062ZM582.945 117.697L569.858 160.534L480.735 141.516L488.81 113.765L585.096 109.606L582.945 117.697ZM479.339 141.217L379.892 121.102L395.557 105.432L487.386 113.694L479.339 141.217ZM355.226 166.417L253.016 108.167L278.778 88.6218L377.485 121.942L355.226 166.417ZM156.559 68.1224L250.694 108.637L224.917 150.847L126.168 100.873L156.559 68.1224ZM225.345 152.585L325.518 208.598L297.434 241.363L180.655 194.88L225.345 152.585ZM179.616 196.034L296.395 242.531L259.951 281.294L140.665 250.281L179.616 196.034ZM260.378 282.846L382.413 308.916L345.855 327.236L216.543 311.195L223.223 308.033L260.378 282.846ZM325.49 343.162H462.207L450.472 351.553L439.734 359.844L283.521 352.835L325.49 343.162ZM440.218 361.268H607.654L592.9 383.99H410.71L440.218 361.268ZM408.887 385.415H592.074L569.986 425.017L367.431 411.897L408.887 385.415ZM365.48 413.208L569.131 426.385L548.154 464.848L328.053 454.078L365.48 413.208ZM570.769 426.47L772.398 428.878V466.087L549.82 464.891L570.769 426.47ZM773.823 428.892L981.163 432.496L1003.62 474.492L773.823 466.116V428.892ZM1005.27 474.478L982.786 432.425H1175.96L1230.07 478.111L1236.42 484.051L1005.27 474.478ZM1176.54 431.029L1140.57 393.891L1318.38 403.549L1376.92 446.414L1176.54 431.029ZM1139.18 392.395L1111.26 352.821L1271.27 361.183L1316.65 401.925L1139.18 392.395ZM1271.79 359.787L1227.17 330.042L1377.54 343.077L1414.76 364.345L1271.79 359.787ZM1377.96 341.681L1340.33 319.999L1469.29 311.722L1514.29 344.045L1377.96 341.681ZM1419.4 279.869L1534.47 249.611L1589.67 298.132L1469.64 310.312L1419.4 279.869ZM1417.8 278.815L1367.03 229.212L1475.27 193.498L1533.19 248.472L1417.8 278.815ZM1427.32 135.119L1535.69 95.2318L1586.62 160.989L1475.74 191.945L1427.32 135.119ZM1424.75 134.721L1326 187.087L1293.4 163.81L1383.24 105.403L1424.75 134.721ZM1162.06 191.803L1152.09 175.05L1250.35 143.781L1162.06 191.803ZM1160.63 192.159L1068.99 201.675L1054.75 188.427L1150.55 175.406L1160.63 192.159ZM1066.92 201.703H963.218L960.983 182.643L1052.8 188.597L1066.92 201.703ZM861.265 173.981L857.291 152.713L953.506 180.691L861.265 173.981ZM859.84 173.825L757.53 162.015L778.266 137.997L855.824 152.243L859.84 173.825ZM755.878 161.801L686.765 151.26L708.127 135.59L776.486 137.869L755.878 161.801ZM685.013 150.889L586.99 108.437L593.854 82.6957L706.646 134.949L685.013 150.889ZM585.58 108.153L489.579 112.298L498.494 95.0039L592.416 82.5247L585.58 108.153ZM487.984 112.312L402.949 104.577L496.799 95.1891L487.984 112.312ZM378.325 120.689L280.202 87.5677L286.981 82.425L393.977 105.033L378.325 120.689ZM278.636 86.9978L183.902 49.19L195.181 41.4404L285.443 81.8267L278.636 86.9978ZM155.163 67.5811L124.886 100.175L26.8484 69.4615L71.9793 47.4093L155.163 67.5811ZM223.921 151.887L179.131 194.353L79.1 158.625L125.171 101.899L223.921 151.887ZM178.191 195.564L139.156 249.982L16.552 234.511L78.1743 159.836L178.191 195.564ZM139.612 251.478L258.47 282.376L222.496 306.793L213.952 310.839L95.3922 280.596L139.612 251.478ZM211.915 311.793L176.81 328.446L39.2384 309.528L93.7117 281.707L211.915 311.793ZM176.924 329.885L320.762 342.706L278.152 352.536L145.023 339.102L176.924 329.885ZM278.408 354.032L437.911 361.154L408.375 383.947L235.171 375.671L278.408 354.032ZM232.536 376.981L406.281 385.315L364.896 411.755L174.887 404.632L232.536 376.981ZM363.557 413.122L326.202 453.993L107.298 434.69L172.21 405.943L363.557 413.122ZM326.672 455.446L547.413 466.244L516.837 525.207L256.134 507.271L326.672 455.446ZM548.966 466.301L772.242 467.512L766.431 536.033L518.389 525.249L548.966 466.301ZM773.666 467.541L1004.38 475.945L1038.95 537.458L767.855 536.033L773.666 467.541ZM1040.59 537.458L1006.07 475.96L1237.91 485.604L1303.42 546.86L1040.59 537.458ZM1230.98 477.071L1178.29 432.61L1379.09 447.924L1385.8 452.839L1460.87 506.816L1238.58 484.165L1230.98 477.071ZM1320.95 403.578L1489.79 411.313L1573.89 459.748L1379.61 446.486L1320.95 403.578ZM1487.37 409.775L1318.91 402.125L1273.51 361.34L1417.35 365.927L1428.03 372.024L1487.37 409.775ZM1380.56 343.162L1516.38 345.513L1577.35 381.127L1417.85 364.417L1380.56 343.162ZM1570.16 22.4653L1480.44 60.3443L1453.72 40.7424L1529.85 1.5955L1570.16 22.4653ZM1445.67 44.8879L1452.32 41.4689L1478.94 61.0139L1383.31 103.751L1358.6 84.2057L1445.67 44.8879ZM86.4201 36.4972L71.7515 45.9848L-3.72779 35.5L86.4201 36.4972ZM15.3556 235.75L137.49 251.121L93.4696 280.14L-25.1183 262.347L15.3556 235.75ZM-10.2788 329.273L37.0025 310.582L173.506 329.472L141.321 338.789L-10.2788 329.273ZM110.773 349.217L141.506 340.27L275.859 353.832L232.337 375.571L66.9806 364.944L110.773 349.217ZM63.5912 366.155L229.617 376.796L171.939 404.504L-23.0961 392.68L63.5912 366.155ZM98.7959 438.522L104.663 435.93L324.607 455.275L253.941 507.115L5.6288 486.815L98.7959 438.522ZM475.01 600.138L517.649 526.674L766.36 537.458V613.301L475.01 600.138ZM767.784 537.529L1039.79 538.954L1042.9 544.509L1092.74 613.401H767.784V537.529ZM1305.67 546.988L1240.28 485.818L1463.2 508.539L1566.75 575.622L1305.67 546.988ZM1463.75 507.101L1386.66 451.685L1381.79 448.109L1576.47 461.386L1605.92 523.839L1463.75 507.101Z" fill="url(#paint0_linear_553_9449)"/>
<defs>
<linearGradient id="paint0_linear_553_9449" x1="-31" y1="347.5" x2="1616" y2="347.5" gradientUnits="userSpaceOnUse">
<stop stop-color="#00F2C4"/>
<stop offset="0.13" stop-color="#66F16D"/>
<stop offset="0.25" stop-color="#B5E653"/>
<stop offset="0.38" stop-color="#F6E900"/>
<stop offset="0.5" stop-color="#FFCC00"/>
<stop offset="0.63" stop-color="#FFB316"/>
<stop offset="0.75" stop-color="#FF747D"/>
<stop offset="0.88" stop-color="#FF4EA7"/>
<stop offset="1" stop-color="#FF00DF"/>
</linearGradient>
</defs>
</svg>
