<svg xmlns="http://www.w3.org/2000/svg" viewBox="0 0 667.72 622.81"><g id="Ebene_2" data-name="Ebene 2"><g id="Ebene_18" data-name="Ebene 18"><path d="M644.72,227.06H583.06a23.08,23.08,0,0,0-23,22.76l-.65,62.64-71.32.62V155.63h19.77a23,23,0,0,0,23-23V25.85a23,23,0,0,0-23-23H475.17a23,23,0,0,0-23,23V62H426.51V23a23,23,0,0,0-23-23H370.67a23,23,0,0,0-23,23V62H322V27.27a23,23,0,0,0-23-23H262.59a23,23,0,0,0-23,23V62H217.5V23a23,23,0,0,0-23-23H159.87a23,23,0,0,0-23,23V132.63a23,23,0,0,0,23,23h19.76V313.08l-71.32-.62-.65-62.64a23.08,23.08,0,0,0-23-22.76H23a23,23,0,0,0-23,23V599.81a23,23,0,0,0,23,23H182.63a22.77,22.77,0,0,0,10-2.29,22.84,22.84,0,0,0,10,2.29H465.09a22.84,22.84,0,0,0,10-2.29,22.84,22.84,0,0,0,10,2.29H644.72a23,23,0,0,0,23-23V250.06A23,23,0,0,0,644.72,227.06ZM162.87,26H191.5V65a23,23,0,0,0,23,23h28.09a23,23,0,0,0,23-23V30.27H296V65a23,23,0,0,0,23,23h31.66a23,23,0,0,0,23-23V26h26.84V65a23,23,0,0,0,23,23h31.66a23,23,0,0,0,23-23V28.85h26.69V129.63h-342ZM26,253.06H81.69l.65,62.62a23.13,23.13,0,0,0,22.81,22.76l74.48.64V596.81H26Zm179.63,83V155.63H462.09V596.81H411.58v-161a76.29,76.29,0,0,0-76.2-76.2,79.33,79.33,0,0,0-79.23,79.24V596.81H205.63Zm76.52,260.71V438.86a53.29,53.29,0,0,1,53.23-53.24,50.26,50.26,0,0,1,50.2,50.2v161Zm359.57,0H488.09V339.08l74.49-.64a23.12,23.12,0,0,0,22.8-22.76l.65-62.62h55.69Z"/><path d="M103.52,381.18h0a53.2,53.2,0,0,0-53.14,53.15v92.41a13,13,0,0,0,13,13h78.88a13,13,0,0,0,13-13V432.92A51.8,51.8,0,0,0,103.52,381.18Zm25.74,132.56H76.38V434.33a27.17,27.17,0,0,1,27.14-27.15,25.77,25.77,0,0,1,25.74,25.74Z"/><path d="M565.61,381.18a53.2,53.2,0,0,0-53.14,53.15v92.41a13,13,0,0,0,13,13h78.88a13,13,0,0,0,13-13V432.92a51.8,51.8,0,0,0-51.74-51.74Zm25.74,51.74v80.82H538.47V434.33a27.17,27.17,0,0,1,27.14-27.15A25.77,25.77,0,0,1,591.35,432.92Z"/></g></g></svg>